<svg width="48" height="48" viewBox="0 0 48 48" fill="none" xmlns="http://www.w3.org/2000/svg">
<path d="M33.8995 14.1005C34.6805 13.3195 34.6872 12.0415 33.8148 11.3639C31.3023 9.41236 28.2512 8.24431 25.0464 8.03426C21.173 7.78038 17.3394 8.9433 14.2598 11.3063C11.1802 13.6694 9.06472 17.0714 8.30743 20.8786C7.55015 24.6857 8.20273 28.6383 10.1436 32C12.0845 35.3617 15.1812 37.9031 18.857 39.1509C22.5327 40.3986 26.5367 40.2675 30.1229 38.7821C33.7092 37.2966 36.6331 34.558 38.35 31.0766C39.7704 28.1962 40.2844 24.9698 39.8506 21.8181C39.6999 20.7239 38.5899 20.0907 37.523 20.3765L31.2098 22.0681C29.2333 22.5977 27.831 20.169 29.2779 18.7221L33.8995 14.1005Z" fill="#E24329"/>
</svg>
