<svg width="48" height="48" viewBox="0 0 48 48" fill="none" xmlns="http://www.w3.org/2000/svg">
<path d="M19.6777 9.43283C21.6056 6.11748 26.3944 6.11748 28.3223 9.43282L31.4242 14.767C31.8601 15.5166 32.4834 16.1399 33.233 16.5758L38.5672 19.6777C41.8825 21.6056 41.8825 26.3944 38.5672 28.3223L33.233 31.4242C32.4834 31.8601 31.8601 32.4834 31.4242 33.233L28.3223 38.5672C26.3944 41.8825 21.6056 41.8825 19.6777 38.5672L16.5758 33.233C16.1399 32.4834 15.5166 31.8601 14.767 31.4242L9.43283 28.3223C6.11748 26.3944 6.11748 21.6056 9.43282 19.6777L14.767 16.5758C15.5166 16.1399 16.1399 15.5166 16.5758 14.767L19.6777 9.43283Z" fill="#E24329"/>
</svg>
