<svg width="48" height="48" viewBox="0 0 48 48" fill="none" xmlns="http://www.w3.org/2000/svg">
<path d="M23.0544 2.7485C23.3639 1.84893 24.6361 1.84894 24.9456 2.7485L27.1326 9.10527C27.3633 9.77585 28.1994 9.99987 28.7345 9.53448L33.8068 5.12286C34.5246 4.49856 35.6264 5.13467 35.4447 6.06846L34.1603 12.6671C34.0248 13.3632 34.6368 13.9752 35.3329 13.8397L41.9315 12.5553C42.8653 12.3736 43.5014 13.4754 42.8771 14.1932L38.4655 19.2655C38.0001 19.8006 38.2241 20.6367 38.8947 20.8674L45.2515 23.0544C46.1511 23.3639 46.1511 24.6361 45.2515 24.9456L38.8947 27.1326C38.2241 27.3633 38.0001 28.1994 38.4655 28.7345L42.8771 33.8068C43.5014 34.5246 42.8653 35.6264 41.9315 35.4447L35.3329 34.1603C34.6368 34.0248 34.0248 34.6368 34.1603 35.3329L35.4447 41.9315C35.6264 42.8653 34.5246 43.5014 33.8068 42.8771L28.7345 38.4655C28.1994 38.0001 27.3633 38.2241 27.1326 38.8947L24.9456 45.2515C24.6361 46.1511 23.3639 46.1511 23.0544 45.2515L20.8674 38.8947C20.6367 38.2241 19.8006 38.0001 19.2655 38.4655L14.1932 42.8771C13.4754 43.5014 12.3736 42.8653 12.5553 41.9315L13.8397 35.3329C13.9752 34.6368 13.3632 34.0248 12.6671 34.1603L6.06846 35.4447C5.13467 35.6264 4.49856 34.5246 5.12286 33.8068L9.53448 28.7345C9.99987 28.1994 9.77585 27.3633 9.10527 27.1326L2.7485 24.9456C1.84893 24.6361 1.84894 23.3639 2.7485 23.0544L9.10527 20.8674C9.77585 20.6367 9.99987 19.8006 9.53448 19.2655L5.12286 14.1932C4.49856 13.4754 5.13467 12.3736 6.06846 12.5553L12.6671 13.8397C13.3632 13.9752 13.9752 13.3632 13.8397 12.6671L12.5553 6.06846C12.3736 5.13467 13.4754 4.49856 14.1932 5.12286L19.2655 9.53448C19.8006 9.99987 20.6367 9.77585 20.8674 9.10527L23.0544 2.7485Z" fill="#E24329"/>
</svg>
