<svg width="600" height="250" viewBox="0 0 600 250" fill="none" xmlns="http://www.w3.org/2000/svg">
<g clip-path="url(#clip0_197_1479)">
<rect width="600" height="250" fill="white"/>
<rect opacity="0.4" width="600" height="250" fill="url(#paint0_linear_197_1479)"/>
<g filter="url(#filter0_dd_197_1479)">
<path d="M30 40C30 34.4772 34.4772 30 40 30H560C565.523 30 570 34.4772 570 40V250H30V40Z" fill="url(#paint1_linear_197_1479)"/>
</g>
<path d="M505.578 178.211C511.334 178.211 515.999 182.876 515.999 188.632V195.579C515.999 201.334 511.333 206 505.578 206H95.4209C89.6656 206 85.0001 201.334 85 195.579V188.632C85 182.876 89.6655 178.211 95.4209 178.211H505.578ZM417.818 74C427.411 74 435.187 81.776 435.188 91.3682V134.723C435.188 141.295 431.478 147.304 425.603 150.249L390.834 167.681C385.935 170.137 380.164 170.137 375.266 167.681L340.497 150.249C334.622 147.304 330.913 141.295 330.913 134.723V91.3682C330.913 81.776 338.689 74 348.281 74H417.818Z" fill="url(#paint2_linear_197_1479)"/>
</g>
<defs>
<filter id="filter0_dd_197_1479" x="6" y="20" width="588" height="268" filterUnits="userSpaceOnUse" color-interpolation-filters="sRGB">
<feFlood flood-opacity="0" result="BackgroundImageFix"/>
<feColorMatrix in="SourceAlpha" type="matrix" values="0 0 0 0 0 0 0 0 0 0 0 0 0 0 0 0 0 0 127 0" result="hardAlpha"/>
<feOffset dy="14"/>
<feGaussianBlur stdDeviation="12"/>
<feComposite in2="hardAlpha" operator="out"/>
<feColorMatrix type="matrix" values="0 0 0 0 0 0 0 0 0 0 0 0 0 0 0 0 0 0 0.15 0"/>
<feBlend mode="normal" in2="BackgroundImageFix" result="effect1_dropShadow_197_1479"/>
<feColorMatrix in="SourceAlpha" type="matrix" values="0 0 0 0 0 0 0 0 0 0 0 0 0 0 0 0 0 0 127 0" result="hardAlpha"/>
<feOffset dy="4"/>
<feGaussianBlur stdDeviation="2"/>
<feComposite in2="hardAlpha" operator="out"/>
<feColorMatrix type="matrix" values="0 0 0 0 0 0 0 0 0 0 0 0 0 0 0 0 0 0 0.25 0"/>
<feBlend mode="normal" in2="effect1_dropShadow_197_1479" result="effect2_dropShadow_197_1479"/>
<feBlend mode="normal" in="SourceGraphic" in2="effect2_dropShadow_197_1479" result="shape"/>
</filter>
<linearGradient id="paint0_linear_197_1479" x1="-2.44509e-07" y1="250" x2="607.55" y2="230.062" gradientUnits="userSpaceOnUse">
<stop stop-color="#C21701"/>
<stop offset="1" stop-color="#FFC501"/>
</linearGradient>
<linearGradient id="paint1_linear_197_1479" x1="300" y1="30" x2="300" y2="250" gradientUnits="userSpaceOnUse">
<stop stop-color="white"/>
<stop offset="1" stop-color="#F4F4F4"/>
</linearGradient>
<linearGradient id="paint2_linear_197_1479" x1="85" y1="140" x2="515.999" y2="140" gradientUnits="userSpaceOnUse">
<stop stop-color="#C21500"/>
<stop offset="1" stop-color="#FFC500"/>
</linearGradient>
<clipPath id="clip0_197_1479">
<rect width="600" height="250" fill="white"/>
</clipPath>
</defs>
</svg>
